<svg width="2899" height="2160" xmlns="http://www.w3.org/2000/svg" xmlns:xlink="http://www.w3.org/1999/xlink" xml:space="preserve" overflow="hidden"><defs><clipPath id="clip0"><rect x="783" y="173" width="2899" height="2160"/></clipPath></defs><g clip-path="url(#clip0)" transform="translate(-783 -173)"><path d="M2830.57 2176.59 1633 178" stroke="#FFC000" stroke-width="10.3125" stroke-miterlimit="8" fill="none" fill-rule="evenodd"/><path d="M0 0 1197.57 1998.59" stroke="#3B7D23" stroke-width="10.3125" stroke-miterlimit="8" fill="none" fill-rule="evenodd" transform="matrix(-1 0 0 1 2394.57 178)"/><path d="M0 0 1259.23 2101.5" stroke="#4E95D9" stroke-width="10.3125" stroke-miterlimit="8" fill="none" fill-rule="evenodd" transform="matrix(-0.515038 -0.857167 -0.857167 0.515038 3238.62 1660.3)"/><path d="M1856.86 1854.62 1859.21 1854.62 1852.24 1882.71 1852.73 1882.87C1855.29 1879.46 1857.72 1877 1860 1875.47 1862.28 1873.95 1864.59 1873.18 1866.91 1873.18 1869.42 1873.18 1871.35 1873.91 1872.71 1875.35 1874.06 1876.8 1874.73 1878.8 1874.73 1881.37 1874.73 1883.07 1874.34 1885.49 1873.56 1888.62L1870.92 1899.24C1870.19 1902.19 1869.83 1904.27 1869.83 1905.48 1869.83 1906.56 1870 1907.35 1870.35 1907.83 1870.71 1908.32 1871.26 1908.56 1872.02 1908.56 1872.83 1908.56 1873.69 1908.23 1874.61 1907.57 1875.53 1906.91 1876.83 1905.65 1878.5 1903.78L1880.81 1906.05C1878.22 1908.78 1876.09 1910.66 1874.43 1911.68 1872.77 1912.71 1870.89 1913.22 1868.81 1913.22 1867.06 1913.22 1865.66 1912.6 1864.62 1911.36 1863.58 1910.12 1863.06 1908.51 1863.06 1906.54 1863.06 1904.78 1863.51 1902.2 1864.4 1898.8L1866.14 1891.79C1866.76 1889.27 1867.18 1887.39 1867.4 1886.13 1867.61 1884.88 1867.72 1883.9 1867.72 1883.19 1867.72 1881.28 1867.41 1879.92 1866.79 1879.12 1866.17 1878.32 1865.15 1877.92 1863.75 1877.92 1862.64 1877.92 1861.41 1878.38 1860.06 1879.3 1858.71 1880.22 1857.29 1881.62 1855.81 1883.5 1854.32 1885.38 1853.14 1887.17 1852.26 1888.89 1851.38 1890.6 1850.69 1892.65 1850.17 1895.03L1846.48 1912.58 1839.47 1912.58 1849.89 1866.25C1850.54 1863.36 1850.86 1861.36 1850.86 1860.26 1850.86 1859.12 1850.52 1858.32 1849.83 1857.86 1849.14 1857.4 1847.9 1857.15 1846.12 1857.09L1846.61 1854.99Z" fill="#4E95D9" fill-rule="evenodd"/><text fill="#000000" fill-opacity="0" font-family="Arial,Arial_MSFontService,sans-serif" font-size="58.6025" x="1839.47" y="1905.9">â„</text><path d="M1899.78 1891.06 1901.6 1891.06C1901.56 1892.15 1901.53 1893.13 1901.51 1893.99 1901.49 1894.85 1901.47 1895.69 1901.46 1896.51 1901.45 1897.32 1901.45 1898.13 1901.45 1898.92L1901.45 1921.56C1901.45 1922.17 1901.47 1922.7 1901.51 1923.15 1901.55 1923.6 1901.61 1923.97 1901.7 1924.28 1901.79 1924.59 1901.91 1924.85 1902.06 1925.07 1902.21 1925.29 1902.38 1925.48 1902.58 1925.64 1902.82 1925.88 1903.14 1926.06 1903.53 1926.19 1903.93 1926.32 1904.44 1926.43 1905.05 1926.52 1905.67 1926.6 1906.41 1926.67 1907.27 1926.72 1908.14 1926.77 1909.17 1926.81 1910.38 1926.83L1910.38 1929.42 1886.76 1929.42 1886.76 1926.83C1887.94 1926.79 1888.93 1926.74 1889.74 1926.69 1890.56 1926.64 1891.25 1926.58 1891.83 1926.49 1892.4 1926.4 1892.87 1926.3 1893.21 1926.19 1893.56 1926.08 1893.86 1925.94 1894.12 1925.79 1894.4 1925.61 1894.64 1925.41 1894.84 1925.2 1895.03 1925 1895.19 1924.73 1895.31 1924.42 1895.43 1924.1 1895.53 1923.71 1895.6 1923.25 1895.67 1922.8 1895.7 1922.23 1895.7 1921.56L1895.7 1900.2C1895.7 1899.43 1895.55 1898.88 1895.25 1898.56 1894.96 1898.24 1894.53 1898.09 1893.97 1898.09 1893.36 1898.09 1892.44 1898.4 1891.23 1899.04 1890.02 1899.67 1888.45 1900.62 1886.53 1901.87 1886.27 1901.41 1886.03 1900.95 1885.81 1900.5 1885.59 1900.04 1885.36 1899.57 1885.13 1899.1 1887.59 1897.75 1890.03 1896.4 1892.44 1895.06 1894.85 1893.72 1897.3 1892.39 1899.78 1891.06Z" fill="#4E95D9" fill-rule="evenodd"/><text fill="#000000" fill-opacity="0" font-family="Arial,Arial_MSFontService,sans-serif" font-size="38.3633" x="1885.13" y="1924.62">1</text><path d="M2001.75 1850.46C2009.64 1852.54 2015.7 1857.03 2019.93 1863.94 2024.16 1870.84 2026.27 1879.17 2026.27 1888.92 2026.27 1898.7 2024.16 1907.03 2019.95 1913.91 2015.73 1920.78 2009.67 1925.26 2001.75 1927.34L2000.78 1924.22C2007.02 1922.14 2011.66 1918.03 2014.7 1911.9 2017.74 1905.77 2019.26 1897.97 2019.26 1888.52 2019.26 1879.38 2017.75 1871.8 2014.72 1865.76 2011.69 1859.72 2007.01 1855.66 2000.66 1853.58ZM1949.85 1850.46 1950.95 1853.58C1944.62 1855.66 1939.94 1859.72 1936.9 1865.76 1933.86 1871.8 1932.34 1879.38 1932.34 1888.52 1932.34 1897.97 1933.86 1905.77 1936.9 1911.9 1939.94 1918.03 1944.58 1922.14 1950.82 1924.22L1949.85 1927.34C1941.94 1925.26 1935.87 1920.78 1931.66 1913.91 1927.44 1907.03 1925.33 1898.7 1925.33 1888.92 1925.33 1879.17 1927.45 1870.84 1931.68 1863.94 1935.9 1857.03 1941.96 1852.54 1949.85 1850.46Z" fill="#4E95D9" fill-rule="evenodd"/><path d="M1982.1 1877.92C1980.73 1877.92 1979.37 1878.39 1978.03 1879.32 1976.69 1880.26 1975.23 1881.75 1973.63 1883.8 1972.04 1885.85 1970.8 1887.88 1969.9 1889.88 1969.01 1891.88 1968.31 1894.18 1967.8 1896.77L1967.47 1898.47C1967.2 1899.9 1967.03 1901 1966.97 1901.76 1966.9 1902.51 1966.87 1903.25 1966.87 1903.98 1966.87 1906.09 1967.32 1907.62 1968.22 1908.58 1969.13 1909.54 1970.69 1910.02 1972.9 1910.02 1974.28 1910.02 1975.55 1909.75 1976.71 1909.21 1977.88 1908.67 1978.98 1907.89 1980.02 1906.86 1981.06 1905.83 1982 1904.59 1982.83 1903.13 1983.67 1901.67 1984.42 1899.98 1985.08 1898.05 1985.74 1896.11 1986.24 1894.13 1986.58 1892.09 1986.92 1890.05 1987.09 1888.14 1987.09 1886.35 1987.09 1883.52 1986.69 1881.4 1985.89 1880.01 1985.1 1878.62 1983.83 1877.92 1982.1 1877.92ZM1965.04 1873.14C1966.72 1873.14 1968.05 1873.7 1969.03 1874.8 1970.02 1875.91 1970.51 1877.38 1970.51 1879.22 1970.51 1880.73 1970.2 1882.33 1969.58 1884L1970.07 1884.17C1975.07 1876.84 1980.04 1873.18 1984.98 1873.18 1987.93 1873.18 1990.22 1874.3 1991.85 1876.55 1993.48 1878.79 1994.3 1881.95 1994.3 1886.03 1994.3 1890.49 1993.4 1894.87 1991.61 1899.18 1989.81 1903.49 1987.32 1906.91 1984.13 1909.43 1980.94 1911.96 1977.38 1913.22 1973.43 1913.22 1969.84 1913.22 1966.85 1912.44 1964.47 1910.87L1962.61 1919.75C1962.2 1921.67 1962 1923.25 1962 1924.49 1962 1925.68 1962.31 1926.52 1962.91 1927.02 1963.52 1927.52 1964.7 1927.85 1966.46 1928.02L1966.14 1930 1953.61 1930 1963.38 1887C1963.95 1884.52 1964.23 1882.48 1964.23 1880.88 1964.23 1879.8 1964.06 1879.02 1963.7 1878.53 1963.35 1878.05 1962.8 1877.8 1962.04 1877.8 1961.2 1877.8 1960.32 1878.15 1959.39 1878.84 1958.46 1879.53 1957.18 1880.78 1955.56 1882.59L1953.25 1880.32C1955.68 1877.78 1957.74 1875.95 1959.43 1874.82 1961.12 1873.7 1962.99 1873.14 1965.04 1873.14Z" fill="#4E95D9" fill-rule="evenodd"/><text fill="#000000" fill-opacity="0" font-family="Arial,Arial_MSFontService,sans-serif" font-size="56.8599" x="1953.25" y="1922.9">ğ‘</text><path d="M2062.31 1863.7 2112.4 1886.03 2112.4 1891.7 2062.31 1914.03 2062.31 1907.96 2106.32 1888.87 2062.31 1869.78Z" fill="#4E95D9" fill-rule="evenodd"/><text fill="#000000" fill-opacity="0" font-family="Arial,Arial_MSFontService,sans-serif" font-size="50.335" x="2062.31" y="1907.74">&gt;</text><path d="M2164.04 1860.05C2162.18 1860.05 2160.62 1860.61 2159.36 1861.71 2158.1 1862.82 2157.09 1864.42 2156.32 1866.5 2155.55 1868.58 2155 1871.11 2154.68 1874.1 2154.36 1877.08 2154.19 1880.45 2154.19 1884.21 2154.19 1893.01 2155.01 1899.48 2156.65 1903.6 2158.28 1907.72 2160.81 1909.78 2164.24 1909.78 2167.51 1909.78 2169.94 1907.84 2171.52 1903.96 2173.1 1900.09 2173.89 1894.08 2173.89 1885.95 2173.89 1879.74 2173.48 1874.7 2172.67 1870.85 2171.86 1867 2170.74 1864.24 2169.29 1862.57 2167.84 1860.89 2166.1 1860.05 2164.04 1860.05ZM2164.24 1856.61C2170.16 1856.61 2174.57 1858.89 2177.46 1863.46 2180.35 1868.02 2181.79 1874.93 2181.79 1884.17 2181.79 1893.73 2180.25 1900.96 2177.15 1905.87 2174.06 1910.77 2169.54 1913.22 2163.6 1913.22 2157.76 1913.22 2153.42 1910.93 2150.57 1906.33 2147.72 1901.74 2146.29 1894.77 2146.29 1885.42 2146.29 1880.45 2146.73 1876.16 2147.61 1872.53 2148.49 1868.91 2149.72 1865.92 2151.3 1863.56 2152.88 1861.19 2154.77 1859.44 2156.99 1858.31 2159.21 1857.17 2161.62 1856.61 2164.24 1856.61Z" fill="#4E95D9" fill-rule="evenodd"/><text fill="#000000" fill-opacity="0" font-family="Arial,Arial_MSFontService,sans-serif" font-size="56.6167" x="2146.29" y="1906.15">0</text><path d="M2442.41 1131.2 2444.76 1131.2 2437.79 1159.28 2438.27 1159.45C2440.84 1156.04 2443.27 1153.58 2445.55 1152.05 2447.83 1150.52 2450.14 1149.76 2452.46 1149.76 2454.97 1149.76 2456.9 1150.48 2458.25 1151.93 2459.61 1153.37 2460.28 1155.38 2460.28 1157.95 2460.28 1159.65 2459.89 1162.07 2459.11 1165.2L2456.47 1175.82C2455.74 1178.76 2455.38 1180.84 2455.38 1182.06 2455.38 1183.14 2455.55 1183.92 2455.9 1184.41 2456.26 1184.9 2456.81 1185.14 2457.57 1185.14 2458.38 1185.14 2459.24 1184.81 2460.16 1184.15 2461.08 1183.49 2462.38 1182.22 2464.05 1180.36L2466.36 1182.63C2463.77 1185.36 2461.64 1187.23 2459.98 1188.26 2458.32 1189.29 2456.44 1189.8 2454.36 1189.8 2452.61 1189.8 2451.21 1189.18 2450.17 1187.94 2449.13 1186.69 2448.61 1185.09 2448.61 1183.11 2448.61 1181.36 2449.06 1178.78 2449.95 1175.37L2451.69 1168.36C2452.31 1165.85 2452.73 1163.96 2452.95 1162.71 2453.16 1161.45 2453.27 1160.47 2453.27 1159.77 2453.27 1157.85 2452.96 1156.49 2452.34 1155.7 2451.72 1154.9 2450.7 1154.5 2449.3 1154.5 2448.19 1154.5 2446.96 1154.96 2445.61 1155.88 2444.26 1156.8 2442.84 1158.2 2441.35 1160.07 2439.87 1161.95 2438.69 1163.75 2437.81 1165.46 2436.93 1167.18 2436.24 1169.23 2435.72 1171.6L2432.03 1189.15 2425.02 1189.15 2435.44 1142.83C2436.09 1139.94 2436.41 1137.94 2436.41 1136.83 2436.41 1135.7 2436.07 1134.9 2435.38 1134.44 2434.69 1133.98 2433.45 1133.72 2431.67 1133.67L2432.16 1131.56Z" fill="#FFC000" fill-rule="evenodd"/><text fill="#000000" fill-opacity="0" font-family="Arial,Arial_MSFontService,sans-serif" font-size="58.6025" x="2425.02" y="1182.48">â„</text><path d="M2484.91 1167.42C2486.97 1167.42 2488.74 1167.66 2490.2 1168.12 2491.66 1168.59 2492.84 1169.22 2493.76 1170.02 2494.67 1170.81 2495.33 1171.76 2495.74 1172.88 2496.14 1173.99 2496.35 1175.19 2496.35 1176.48 2496.35 1177.25 2496.29 1177.97 2496.18 1178.64 2496.07 1179.3 2495.88 1179.96 2495.62 1180.6 2495.35 1181.25 2495 1181.9 2494.56 1182.56 2494.12 1183.21 2493.58 1183.91 2492.92 1184.64 2492.42 1185.28 2491.78 1186.01 2490.99 1186.84 2490.19 1187.68 2489.32 1188.57 2488.38 1189.53 2487.44 1190.48 2486.45 1191.47 2485.42 1192.5 2484.38 1193.54 2483.38 1194.56 2482.41 1195.57 2481.43 1196.58 2480.54 1197.57 2479.73 1198.52 2478.91 1199.47 2478.25 1200.35 2477.73 1201.14L2488.75 1201.14C2489.68 1201.14 2490.43 1201.11 2490.99 1201.04 2491.54 1200.97 2492 1200.81 2492.37 1200.58 2492.74 1200.34 2493.05 1199.97 2493.31 1199.49 2493.57 1199 2493.86 1198.33 2494.2 1197.48L2496.97 1197.48C2496.87 1198.89 2496.78 1200.31 2496.69 1201.74 2496.6 1203.17 2496.51 1204.59 2496.41 1206L2471.18 1206 2471.18 1204.45C2471.65 1203.38 2472.21 1202.32 2472.85 1201.28 2473.48 1200.23 2474.2 1199.18 2474.99 1198.1 2475.78 1197.03 2476.69 1195.92 2477.7 1194.78 2478.71 1193.64 2479.84 1192.45 2481.07 1191.22 2482.93 1189.36 2484.45 1187.76 2485.62 1186.44 2486.8 1185.12 2487.72 1183.95 2488.39 1182.91 2489.07 1181.88 2489.53 1180.93 2489.78 1180.05 2490.03 1179.18 2490.15 1178.25 2490.15 1177.25 2490.15 1176.24 2490.01 1175.31 2489.72 1174.45 2489.43 1173.6 2489.02 1172.88 2488.48 1172.28 2487.95 1171.68 2487.27 1171.22 2486.44 1170.88 2485.62 1170.54 2484.67 1170.37 2483.6 1170.37 2481.75 1170.37 2480.2 1170.87 2478.95 1171.88 2477.7 1172.88 2476.73 1174.33 2476.03 1176.24L2472.13 1176.24 2472.13 1170.43C2474.67 1169.38 2477.01 1168.62 2479.15 1168.14 2481.28 1167.66 2483.2 1167.42 2484.91 1167.42Z" fill="#FFC000" fill-rule="evenodd"/><text fill="#000000" fill-opacity="0" font-family="Arial,Arial_MSFontService,sans-serif" font-size="38.5718" x="2471.18" y="1201.17">2</text><path d="M2589.2 1127.04C2597.09 1129.12 2603.15 1133.61 2607.38 1140.51 2611.61 1147.42 2613.72 1155.75 2613.72 1165.5 2613.72 1175.28 2611.61 1183.61 2607.4 1190.48 2603.19 1197.36 2597.12 1201.84 2589.2 1203.92L2588.23 1200.8C2594.47 1198.72 2599.11 1194.61 2602.15 1188.48 2605.19 1182.34 2606.71 1174.55 2606.71 1165.09 2606.71 1155.96 2605.2 1148.38 2602.17 1142.34 2599.15 1136.3 2594.46 1132.24 2588.11 1130.16ZM2537.3 1127.04 2538.4 1130.16C2532.08 1132.24 2527.39 1136.3 2524.36 1142.34 2521.32 1148.38 2519.8 1155.96 2519.8 1165.09 2519.8 1174.55 2521.32 1182.34 2524.36 1188.48 2527.39 1194.61 2532.04 1198.72 2538.28 1200.8L2537.3 1203.92C2529.39 1201.84 2523.32 1197.36 2519.11 1190.48 2514.89 1183.61 2512.78 1175.28 2512.78 1165.5 2512.78 1155.75 2514.9 1147.42 2519.13 1140.51 2523.36 1133.61 2529.41 1129.12 2537.3 1127.04Z" fill="#FFC000" fill-rule="evenodd"/><path d="M2569.56 1154.5C2568.18 1154.5 2566.82 1154.97 2565.48 1155.9 2564.15 1156.83 2562.68 1158.32 2561.09 1160.38 2559.49 1162.43 2558.25 1164.46 2557.36 1166.46 2556.47 1168.46 2555.76 1170.75 2555.25 1173.35L2554.93 1175.05C2554.65 1176.48 2554.49 1177.58 2554.42 1178.33 2554.35 1179.09 2554.32 1179.83 2554.32 1180.56 2554.32 1182.67 2554.77 1184.2 2555.67 1185.16 2556.58 1186.12 2558.14 1186.6 2560.36 1186.6 2561.73 1186.6 2563 1186.33 2564.17 1185.79 2565.33 1185.25 2566.43 1184.46 2567.47 1183.44 2568.51 1182.41 2569.45 1181.17 2570.28 1179.71 2571.12 1178.25 2571.87 1176.56 2572.53 1174.62 2573.2 1172.69 2573.7 1170.71 2574.03 1168.67 2574.37 1166.63 2574.54 1164.71 2574.54 1162.93 2574.54 1160.09 2574.14 1157.98 2573.34 1156.59 2572.55 1155.2 2571.28 1154.5 2569.56 1154.5ZM2552.49 1149.72C2554.17 1149.72 2555.5 1150.27 2556.49 1151.38 2557.47 1152.49 2557.96 1153.96 2557.96 1155.8 2557.96 1157.31 2557.65 1158.91 2557.03 1160.58L2557.52 1160.74C2562.52 1153.42 2567.49 1149.76 2572.43 1149.76 2575.38 1149.76 2577.67 1150.88 2579.3 1153.12 2580.94 1155.37 2581.75 1158.53 2581.75 1162.61 2581.75 1167.07 2580.86 1171.45 2579.06 1175.76 2577.26 1180.07 2574.77 1183.49 2571.58 1186.01 2568.39 1188.54 2564.83 1189.8 2560.88 1189.8 2557.29 1189.8 2554.3 1189.02 2551.93 1187.45L2550.06 1196.33C2549.66 1198.24 2549.45 1199.82 2549.45 1201.07 2549.45 1202.26 2549.76 1203.1 2550.37 1203.6 2550.97 1204.1 2552.16 1204.43 2553.91 1204.59L2553.59 1206.58 2541.06 1206.58 2550.83 1163.58C2551.4 1161.09 2551.68 1159.05 2551.68 1157.46 2551.68 1156.38 2551.51 1155.6 2551.16 1155.11 2550.8 1154.62 2550.25 1154.38 2549.49 1154.38 2548.66 1154.38 2547.77 1154.72 2546.84 1155.41 2545.91 1156.1 2544.63 1157.35 2543.01 1159.16L2540.7 1156.89C2543.13 1154.35 2545.19 1152.52 2546.88 1151.4 2548.57 1150.28 2550.44 1149.72 2552.49 1149.72Z" fill="#FFC000" fill-rule="evenodd"/><text fill="#000000" fill-opacity="0" font-family="Arial,Arial_MSFontService,sans-serif" font-size="56.8599" x="2540.7" y="1199.47">ğ‘</text><path d="M2649.76 1140.28 2699.85 1162.61 2699.85 1168.28 2649.76 1190.61 2649.76 1184.53 2693.77 1165.44 2649.76 1146.36Z" fill="#FFC000" fill-rule="evenodd"/><text fill="#000000" fill-opacity="0" font-family="Arial,Arial_MSFontService,sans-serif" font-size="50.335" x="2649.76" y="1184.32">&gt;</text><path d="M2751.49 1136.63C2749.63 1136.63 2748.07 1137.18 2746.81 1138.29 2745.56 1139.4 2744.54 1140.99 2743.77 1143.07 2743 1145.15 2742.46 1147.69 2742.13 1150.67 2741.81 1153.66 2741.65 1157.03 2741.65 1160.78 2741.65 1169.59 2742.46 1176.06 2744.1 1180.18 2745.73 1184.3 2748.26 1186.36 2751.7 1186.36 2754.97 1186.36 2757.39 1184.42 2758.97 1180.54 2760.55 1176.66 2761.34 1170.66 2761.34 1162.53 2761.34 1156.31 2760.94 1151.28 2760.13 1147.43 2759.32 1143.58 2758.19 1140.82 2756.74 1139.14 2755.3 1137.47 2753.55 1136.63 2751.49 1136.63ZM2751.7 1133.18C2757.61 1133.18 2762.02 1135.47 2764.91 1140.03 2767.8 1144.6 2769.24 1151.5 2769.24 1160.74 2769.24 1170.31 2767.7 1177.54 2764.6 1182.45 2761.51 1187.35 2756.99 1189.8 2751.05 1189.8 2745.21 1189.8 2740.87 1187.5 2738.02 1182.91 2735.17 1178.32 2733.74 1171.35 2733.74 1162 2733.74 1157.03 2734.18 1152.73 2735.06 1149.11 2735.94 1145.49 2737.17 1142.5 2738.75 1140.13 2740.33 1137.77 2742.23 1136.02 2744.44 1134.89 2746.66 1133.75 2749.08 1133.18 2751.7 1133.18Z" fill="#FFC000" fill-rule="evenodd"/><text fill="#000000" fill-opacity="0" font-family="Arial,Arial_MSFontService,sans-serif" font-size="56.6167" x="2733.74" y="1182.72">0</text><path d="M1239.07 1131.2 1241.42 1131.2 1234.45 1159.28 1234.93 1159.45C1237.5 1156.04 1239.92 1153.58 1242.21 1152.05 1244.49 1150.52 1246.79 1149.76 1249.12 1149.76 1251.63 1149.76 1253.56 1150.48 1254.91 1151.93 1256.26 1153.37 1256.94 1155.38 1256.94 1157.95 1256.94 1159.65 1256.55 1162.07 1255.76 1165.2L1253.13 1175.82C1252.4 1178.76 1252.04 1180.84 1252.04 1182.06 1252.04 1183.14 1252.21 1183.92 1252.56 1184.41 1252.91 1184.9 1253.47 1185.14 1254.22 1185.14 1255.03 1185.14 1255.9 1184.81 1256.82 1184.15 1257.74 1183.49 1259.03 1182.22 1260.71 1180.36L1263.02 1182.63C1260.42 1185.36 1258.3 1187.23 1256.64 1188.26 1254.97 1189.29 1253.1 1189.8 1251.02 1189.8 1249.27 1189.8 1247.87 1189.18 1246.83 1187.94 1245.79 1186.69 1245.27 1185.09 1245.27 1183.11 1245.27 1181.36 1245.71 1178.78 1246.6 1175.37L1248.35 1168.36C1248.97 1165.85 1249.39 1163.96 1249.6 1162.71 1249.82 1161.45 1249.93 1160.47 1249.93 1159.77 1249.93 1157.85 1249.62 1156.49 1249 1155.7 1248.37 1154.9 1247.36 1154.5 1245.96 1154.5 1244.85 1154.5 1243.62 1154.96 1242.27 1155.88 1240.92 1156.8 1239.5 1158.2 1238.01 1160.07 1236.53 1161.95 1235.34 1163.75 1234.47 1165.46 1233.59 1167.18 1232.89 1169.23 1232.38 1171.6L1228.69 1189.15 1221.68 1189.15 1232.1 1142.83C1232.74 1139.94 1233.07 1137.94 1233.07 1136.83 1233.07 1135.7 1232.72 1134.9 1232.04 1134.44 1231.35 1133.98 1230.11 1133.72 1228.33 1133.67L1228.81 1131.56Z" fill="#3B7D23" fill-rule="evenodd"/><text fill="#000000" fill-opacity="0" font-family="Arial,Arial_MSFontService,sans-serif" font-size="58.6025" x="1221.68" y="1182.48">â„</text><path d="M1281.51 1167.42C1283.1 1167.42 1284.58 1167.59 1285.96 1167.93 1287.34 1168.27 1288.54 1168.78 1289.55 1169.46 1290.56 1170.15 1291.35 1171 1291.92 1172.03 1292.48 1173.05 1292.77 1174.24 1292.77 1175.59 1292.77 1176.86 1292.59 1177.98 1292.23 1178.95 1291.87 1179.92 1291.32 1180.81 1290.58 1181.6 1289.83 1182.4 1288.92 1183.12 1287.84 1183.76 1286.75 1184.41 1285.51 1185.03 1284.1 1185.62L1284.1 1185.98C1285.43 1186.22 1286.67 1186.6 1287.82 1187.13 1288.97 1187.65 1289.98 1188.32 1290.85 1189.12 1291.71 1189.93 1292.39 1190.86 1292.89 1191.91 1293.38 1192.96 1293.63 1194.12 1293.63 1195.39 1293.63 1196.98 1293.33 1198.46 1292.74 1199.82 1292.14 1201.18 1291.25 1202.35 1290.06 1203.35 1288.86 1204.34 1287.4 1205.11 1285.65 1205.67 1283.9 1206.22 1281.86 1206.5 1279.51 1206.5 1277.67 1206.5 1275.79 1206.32 1273.88 1205.95 1271.98 1205.58 1270.17 1205.1 1268.46 1204.51L1268.46 1198.07 1272.3 1198.07C1272.62 1199.07 1273 1199.92 1273.44 1200.62 1273.87 1201.33 1274.38 1201.9 1274.97 1202.35 1275.56 1202.79 1276.23 1203.12 1277 1203.32 1277.76 1203.51 1278.63 1203.61 1279.6 1203.61 1282.16 1203.61 1284.1 1203 1285.42 1201.78 1286.74 1200.56 1287.41 1198.71 1287.41 1196.23 1287.41 1193.59 1286.54 1191.59 1284.8 1190.23 1283.06 1188.86 1280.48 1188.18 1277.07 1188.18L1274.45 1188.18 1274.45 1185.33C1276.53 1185.23 1278.34 1184.93 1279.85 1184.45 1281.37 1183.96 1282.64 1183.33 1283.65 1182.56 1284.66 1181.78 1285.42 1180.88 1285.92 1179.84 1286.41 1178.81 1286.66 1177.71 1286.66 1176.54 1286.66 1174.63 1286.09 1173.13 1284.96 1172.03 1283.83 1170.92 1282.19 1170.37 1280.05 1170.37 1278.24 1170.37 1276.73 1170.87 1275.51 1171.86 1274.28 1172.86 1273.35 1174.33 1272.69 1176.3L1268.91 1176.3 1268.91 1170.43C1271.25 1169.44 1273.46 1168.69 1275.54 1168.18 1277.61 1167.68 1279.6 1167.42 1281.51 1167.42Z" fill="#3B7D23" fill-rule="evenodd"/><text fill="#000000" fill-opacity="0" font-family="Arial,Arial_MSFontService,sans-serif" font-size="39.0781" x="1268.46" y="1201.62">3</text><path d="M1385.86 1127.04C1393.75 1129.12 1399.81 1133.61 1404.04 1140.51 1408.27 1147.42 1410.38 1155.75 1410.38 1165.5 1410.38 1175.28 1408.27 1183.61 1404.06 1190.48 1399.84 1197.36 1393.78 1201.84 1385.86 1203.92L1384.89 1200.8C1391.13 1198.72 1395.77 1194.61 1398.81 1188.48 1401.85 1182.34 1403.37 1174.55 1403.37 1165.09 1403.37 1155.96 1401.86 1148.38 1398.83 1142.34 1395.8 1136.3 1391.12 1132.24 1384.77 1130.16ZM1333.96 1127.04 1335.06 1130.16C1328.73 1132.24 1324.05 1136.3 1321.01 1142.34 1317.97 1148.38 1316.45 1155.96 1316.45 1165.09 1316.45 1174.55 1317.97 1182.34 1321.01 1188.48 1324.05 1194.61 1328.69 1198.72 1334.93 1200.8L1333.96 1203.92C1326.05 1201.84 1319.98 1197.36 1315.77 1190.48 1311.55 1183.61 1309.44 1175.28 1309.44 1165.5 1309.44 1155.75 1311.56 1147.42 1315.79 1140.51 1320.01 1133.61 1326.07 1129.12 1333.96 1127.04Z" fill="#3B7D23" fill-rule="evenodd"/><path d="M1366.21 1154.5C1364.84 1154.5 1363.48 1154.97 1362.14 1155.9 1360.8 1156.83 1359.34 1158.32 1357.74 1160.38 1356.15 1162.43 1354.91 1164.46 1354.01 1166.46 1353.12 1168.46 1352.42 1170.75 1351.91 1173.35L1351.58 1175.05C1351.31 1176.48 1351.14 1177.58 1351.08 1178.33 1351.01 1179.09 1350.98 1179.83 1350.98 1180.56 1350.98 1182.67 1351.43 1184.2 1352.33 1185.16 1353.24 1186.12 1354.8 1186.6 1357.01 1186.6 1358.39 1186.6 1359.66 1186.33 1360.82 1185.79 1361.99 1185.25 1363.09 1184.46 1364.13 1183.44 1365.17 1182.41 1366.11 1181.17 1366.94 1179.71 1367.78 1178.25 1368.53 1176.56 1369.19 1174.62 1369.85 1172.69 1370.35 1170.71 1370.69 1168.67 1371.03 1166.63 1371.2 1164.71 1371.2 1162.93 1371.2 1160.09 1370.8 1157.98 1370 1156.59 1369.21 1155.2 1367.94 1154.5 1366.21 1154.5ZM1349.15 1149.72C1350.83 1149.72 1352.16 1150.27 1353.14 1151.38 1354.13 1152.49 1354.62 1153.96 1354.62 1155.8 1354.62 1157.31 1354.31 1158.91 1353.69 1160.58L1354.18 1160.74C1359.18 1153.42 1364.15 1149.76 1369.09 1149.76 1372.04 1149.76 1374.33 1150.88 1375.96 1153.12 1377.59 1155.37 1378.41 1158.53 1378.41 1162.61 1378.41 1167.07 1377.51 1171.45 1375.72 1175.76 1373.92 1180.07 1371.43 1183.49 1368.24 1186.01 1365.05 1188.54 1361.49 1189.8 1357.54 1189.8 1353.95 1189.8 1350.96 1189.02 1348.58 1187.45L1346.72 1196.33C1346.31 1198.24 1346.11 1199.82 1346.11 1201.07 1346.11 1202.26 1346.42 1203.1 1347.02 1203.6 1347.63 1204.1 1348.81 1204.43 1350.57 1204.59L1350.25 1206.58 1337.72 1206.58 1347.49 1163.58C1348.06 1161.09 1348.34 1159.05 1348.34 1157.46 1348.34 1156.38 1348.17 1155.6 1347.81 1155.11 1347.46 1154.62 1346.91 1154.38 1346.15 1154.38 1345.31 1154.38 1344.43 1154.72 1343.5 1155.41 1342.57 1156.1 1341.29 1157.35 1339.67 1159.16L1337.36 1156.89C1339.79 1154.35 1341.85 1152.52 1343.54 1151.4 1345.23 1150.28 1347.1 1149.72 1349.15 1149.72Z" fill="#3B7D23" fill-rule="evenodd"/><text fill="#000000" fill-opacity="0" font-family="Arial,Arial_MSFontService,sans-serif" font-size="56.8599" x="1337.36" y="1199.47">ğ‘</text><path d="M1446.42 1140.28 1496.51 1162.61 1496.51 1168.28 1446.42 1190.61 1446.42 1184.53 1490.43 1165.44 1446.42 1146.36Z" fill="#3B7D23" fill-rule="evenodd"/><text fill="#000000" fill-opacity="0" font-family="Arial,Arial_MSFontService,sans-serif" font-size="50.335" x="1446.42" y="1184.32">&gt;</text><path d="M1548.15 1136.63C1546.29 1136.63 1544.73 1137.18 1543.47 1138.29 1542.21 1139.4 1541.2 1140.99 1540.43 1143.07 1539.66 1145.15 1539.11 1147.69 1538.79 1150.67 1538.47 1153.66 1538.3 1157.03 1538.3 1160.78 1538.3 1169.59 1539.12 1176.06 1540.76 1180.18 1542.39 1184.3 1544.92 1186.36 1548.35 1186.36 1551.62 1186.36 1554.05 1184.42 1555.63 1180.54 1557.21 1176.66 1558 1170.66 1558 1162.53 1558 1156.31 1557.59 1151.28 1556.78 1147.43 1555.97 1143.58 1554.85 1140.82 1553.4 1139.14 1551.95 1137.47 1550.21 1136.63 1548.15 1136.63ZM1548.35 1133.18C1554.27 1133.18 1558.68 1135.47 1561.57 1140.03 1564.46 1144.6 1565.9 1151.5 1565.9 1160.74 1565.9 1170.31 1564.36 1177.54 1561.26 1182.45 1558.17 1187.35 1553.65 1189.8 1547.71 1189.8 1541.87 1189.8 1537.53 1187.5 1534.68 1182.91 1531.83 1178.32 1530.4 1171.35 1530.4 1162 1530.4 1157.03 1530.84 1152.73 1531.72 1149.11 1532.6 1145.49 1533.83 1142.5 1535.41 1140.13 1536.99 1137.77 1538.88 1136.02 1541.1 1134.89 1543.32 1133.75 1545.73 1133.18 1548.35 1133.18Z" fill="#3B7D23" fill-rule="evenodd"/><text fill="#000000" fill-opacity="0" font-family="Arial,Arial_MSFontService,sans-serif" font-size="56.6167" x="1530.4" y="1182.72">0</text><path d="M1517.5 1654.5 2014 825.5 2510.5 1654.5Z" stroke="#FF0000" stroke-width="6.875" stroke-miterlimit="8" fill="#FF0000" fill-rule="evenodd" fill-opacity="0.25098"/><path d="M3305.64 1623.14 3307.99 1623.14 3301.02 1651.23 3301.5 1651.39C3304.07 1647.99 3306.49 1645.52 3308.78 1644 3311.06 1642.47 3313.36 1641.71 3315.69 1641.71 3318.2 1641.71 3320.13 1642.43 3321.48 1643.87 3322.83 1645.32 3323.51 1647.33 3323.51 1649.89 3323.51 1651.59 3323.12 1654.01 3322.33 1657.15L3319.7 1667.76C3318.97 1670.71 3318.61 1672.79 3318.61 1674.01 3318.61 1675.09 3318.78 1675.87 3319.13 1676.36 3319.48 1676.84 3320.04 1677.09 3320.79 1677.09 3321.6 1677.09 3322.47 1676.75 3323.39 1676.09 3324.31 1675.43 3325.6 1674.17 3327.28 1672.3L3329.59 1674.57C3326.99 1677.3 3324.87 1679.18 3323.21 1680.21 3321.54 1681.23 3319.67 1681.75 3317.59 1681.75 3315.84 1681.75 3314.44 1681.12 3313.4 1679.88 3312.36 1678.64 3311.84 1677.03 3311.84 1675.06 3311.84 1673.3 3312.28 1670.72 3313.17 1667.32L3314.92 1660.31C3315.54 1657.79 3315.96 1655.91 3316.17 1654.65 3316.39 1653.4 3316.5 1652.42 3316.5 1651.72 3316.5 1649.8 3316.19 1648.44 3315.57 1647.64 3314.94 1646.85 3313.93 1646.45 3312.53 1646.45 3311.42 1646.45 3310.19 1646.91 3308.84 1647.83 3307.49 1648.74 3306.07 1650.14 3304.58 1652.02 3303.1 1653.9 3301.91 1655.69 3301.04 1657.41 3300.16 1659.13 3299.46 1661.17 3298.95 1663.55L3295.26 1681.1 3288.25 1681.1 3298.67 1634.78C3299.31 1631.88 3299.64 1629.89 3299.64 1628.78 3299.64 1627.64 3299.29 1626.85 3298.6 1626.39 3297.92 1625.93 3296.68 1625.67 3294.9 1625.62L3295.38 1623.51Z" fill="#4E95D9" fill-rule="evenodd"/><text fill="#000000" fill-opacity="0" font-family="Arial,Arial_MSFontService,sans-serif" font-size="58.6025" x="3288.25" y="1674.42">â„</text><path d="M3348.56 1659.58 3350.37 1659.58C3350.33 1660.67 3350.31 1661.65 3350.29 1662.51 3350.27 1663.38 3350.25 1664.22 3350.24 1665.03 3350.23 1665.84 3350.23 1666.65 3350.23 1667.44L3350.23 1690.08C3350.23 1690.69 3350.25 1691.23 3350.29 1691.67 3350.33 1692.12 3350.39 1692.5 3350.48 1692.8 3350.57 1693.11 3350.69 1693.37 3350.84 1693.59 3350.99 1693.81 3351.16 1694 3351.36 1694.16 3351.6 1694.4 3351.91 1694.58 3352.31 1694.71 3352.71 1694.84 3353.21 1694.95 3353.83 1695.04 3354.45 1695.13 3355.19 1695.2 3356.05 1695.25 3356.91 1695.3 3357.95 1695.33 3359.16 1695.35L3359.16 1697.94 3335.54 1697.94 3335.54 1695.35C3336.71 1695.31 3337.71 1695.27 3338.52 1695.22 3339.33 1695.17 3340.03 1695.1 3340.61 1695.01 3341.18 1694.92 3341.64 1694.82 3341.99 1694.71 3342.34 1694.6 3342.64 1694.47 3342.9 1694.31 3343.18 1694.13 3343.42 1693.94 3343.61 1693.73 3343.81 1693.52 3343.97 1693.26 3344.09 1692.94 3344.21 1692.62 3344.3 1692.23 3344.37 1691.78 3344.44 1691.32 3344.48 1690.75 3344.48 1690.08L3344.48 1668.72C3344.48 1667.95 3344.33 1667.4 3344.03 1667.08 3343.73 1666.77 3343.31 1666.61 3342.75 1666.61 3342.13 1666.61 3341.22 1666.93 3340.01 1667.56 3338.8 1668.2 3337.23 1669.14 3335.3 1670.39 3335.05 1669.93 3334.81 1669.48 3334.59 1669.02 3334.37 1668.56 3334.14 1668.1 3333.9 1667.62 3336.37 1666.27 3338.8 1664.92 3341.22 1663.58 3343.63 1662.24 3346.08 1660.91 3348.56 1659.58Z" fill="#4E95D9" fill-rule="evenodd"/><text fill="#000000" fill-opacity="0" font-family="Arial,Arial_MSFontService,sans-serif" font-size="38.3633" x="3333.9" y="1693.15">1</text><path d="M3450.53 1618.98C3458.42 1621.06 3464.48 1625.56 3468.71 1632.46 3472.93 1639.36 3475.05 1647.69 3475.05 1657.44 3475.05 1667.22 3472.94 1675.55 3468.73 1682.43 3464.51 1689.31 3458.45 1693.78 3450.53 1695.86L3449.56 1692.74C3455.8 1690.66 3460.44 1686.56 3463.48 1680.42 3466.52 1674.29 3468.04 1666.5 3468.04 1657.04 3468.04 1647.91 3466.52 1640.32 3463.5 1634.28 3460.47 1628.24 3455.78 1624.18 3449.43 1622.1ZM3398.63 1618.98 3399.72 1622.1C3393.4 1624.18 3388.72 1628.24 3385.68 1634.28 3382.64 1640.32 3381.12 1647.91 3381.12 1657.04 3381.12 1666.5 3382.64 1674.29 3385.68 1680.42 3388.72 1686.56 3393.36 1690.66 3399.6 1692.74L3398.63 1695.86C3390.71 1693.78 3384.65 1689.31 3380.43 1682.43 3376.22 1675.55 3374.11 1667.22 3374.11 1657.44 3374.11 1647.69 3376.22 1639.36 3380.45 1632.46 3384.68 1625.56 3390.74 1621.06 3398.63 1618.98Z" fill="#4E95D9" fill-rule="evenodd"/><path d="M3430.88 1646.45C3429.5 1646.45 3428.15 1646.91 3426.81 1647.85 3425.47 1648.78 3424 1650.27 3422.41 1652.32 3420.82 1654.38 3419.57 1656.4 3418.68 1658.4 3417.79 1660.4 3417.09 1662.7 3416.57 1665.29L3416.25 1666.99C3415.98 1668.43 3415.81 1669.52 3415.74 1670.28 3415.68 1671.03 3415.64 1671.78 3415.64 1672.51 3415.64 1674.61 3416.1 1676.15 3417 1677.11 3417.91 1678.07 3419.47 1678.54 3421.68 1678.54 3423.06 1678.54 3424.33 1678.27 3425.49 1677.73 3426.65 1677.19 3427.75 1676.41 3428.79 1675.38 3429.83 1674.36 3430.77 1673.11 3431.61 1671.66 3432.45 1670.2 3433.2 1668.5 3433.86 1666.57 3434.52 1664.64 3435.02 1662.65 3435.36 1660.61 3435.7 1658.57 3435.87 1656.66 3435.87 1654.88 3435.87 1652.04 3435.47 1649.93 3434.67 1648.53 3433.87 1647.14 3432.61 1646.45 3430.88 1646.45ZM3413.82 1641.66C3415.49 1641.66 3416.82 1642.22 3417.81 1643.33 3418.8 1644.43 3419.29 1645.91 3419.29 1647.74 3419.29 1649.26 3418.98 1650.85 3418.36 1652.53L3418.84 1652.69C3423.84 1645.37 3428.81 1641.71 3433.76 1641.71 3436.7 1641.71 3438.99 1642.83 3440.63 1645.07 3442.26 1647.31 3443.08 1650.47 3443.08 1654.55 3443.08 1659.01 3442.18 1663.39 3440.38 1667.7 3438.59 1672.01 3436.1 1675.43 3432.91 1677.96 3429.72 1680.48 3426.15 1681.75 3422.21 1681.75 3418.61 1681.75 3415.63 1680.96 3413.25 1679.4L3411.39 1688.27C3410.98 1690.19 3410.78 1691.77 3410.78 1693.01 3410.78 1694.2 3411.08 1695.05 3411.69 1695.55 3412.3 1696.05 3413.48 1696.38 3415.24 1696.54L3414.91 1698.52 3402.39 1698.52 3412.16 1655.53C3412.72 1653.04 3413.01 1651 3413.01 1649.41 3413.01 1648.32 3412.83 1647.54 3412.48 1647.06 3412.13 1646.57 3411.58 1646.33 3410.82 1646.33 3409.98 1646.33 3409.1 1646.67 3408.17 1647.36 3407.23 1648.05 3405.96 1649.3 3404.34 1651.11L3402.03 1648.84C3404.46 1646.3 3406.52 1644.47 3408.21 1643.35 3409.89 1642.23 3411.77 1641.66 3413.82 1641.66Z" fill="#4E95D9" fill-rule="evenodd"/><text fill="#000000" fill-opacity="0" font-family="Arial,Arial_MSFontService,sans-serif" font-size="56.8599" x="3402.03" y="1691.42">ğ‘</text><path d="M3511.09 1663.1 3561.02 1663.1 3561.02 1668.49 3511.09 1668.49ZM3511.09 1646.29 3561.02 1646.29 3561.02 1651.68 3511.09 1651.68Z" fill="#4E95D9" fill-rule="evenodd"/><text fill="#000000" fill-opacity="0" font-family="Arial,Arial_MSFontService,sans-serif" font-size="22.209" x="3511.09" y="1665.72">=</text><path d="M3612.82 1628.57C3610.96 1628.57 3609.39 1629.13 3608.14 1630.24 3606.88 1631.34 3605.87 1632.94 3605.1 1635.02 3604.33 1637.1 3603.78 1639.63 3603.46 1642.62 3603.13 1645.6 3602.97 1648.97 3602.97 1652.73 3602.97 1661.54 3603.79 1668 3605.42 1672.12 3607.06 1676.24 3609.59 1678.3 3613.02 1678.3 3616.29 1678.3 3618.72 1676.36 3620.3 1672.49 3621.88 1668.61 3622.67 1662.6 3622.67 1654.47 3622.67 1648.26 3622.26 1643.23 3621.45 1639.38 3620.64 1635.53 3619.51 1632.76 3618.07 1631.09 3616.62 1629.41 3614.87 1628.57 3612.82 1628.57ZM3613.02 1625.13C3618.94 1625.13 3623.34 1627.41 3626.23 1631.98 3629.12 1636.54 3630.57 1643.45 3630.57 1652.69 3630.57 1662.25 3629.02 1669.49 3625.93 1674.39 3622.84 1679.29 3618.32 1681.75 3612.37 1681.75 3606.54 1681.75 3602.19 1679.45 3599.34 1674.86 3596.49 1670.26 3595.07 1663.29 3595.07 1653.94 3595.07 1648.97 3595.51 1644.68 3596.39 1641.06 3597.26 1637.44 3598.49 1634.44 3600.07 1632.08 3601.65 1629.72 3603.55 1627.97 3605.77 1626.83 3607.98 1625.7 3610.4 1625.13 3613.02 1625.13Z" fill="#4E95D9" fill-rule="evenodd"/><text fill="#000000" fill-opacity="0" font-family="Arial,Arial_MSFontService,sans-serif" font-size="56.6167" x="3595.07" y="1674.67">0</text><path d="M1050.2 2234.78 1052.55 2234.78 1045.58 2262.87 1046.06 2263.03C1048.63 2259.62 1051.06 2257.16 1053.34 2255.63 1055.62 2254.11 1057.92 2253.34 1060.25 2253.34 1062.76 2253.34 1064.69 2254.07 1066.04 2255.51 1067.39 2256.96 1068.07 2258.96 1068.07 2261.53 1068.07 2263.23 1067.68 2265.65 1066.89 2268.78L1064.26 2279.4C1063.53 2282.35 1063.17 2284.43 1063.17 2285.64 1063.17 2286.72 1063.34 2287.51 1063.69 2287.99 1064.04 2288.48 1064.6 2288.72 1065.35 2288.72 1066.17 2288.72 1067.03 2288.39 1067.95 2287.73 1068.87 2287.07 1070.16 2285.81 1071.84 2283.94L1074.15 2286.21C1071.56 2288.94 1069.43 2290.82 1067.77 2291.84 1066.1 2292.87 1064.23 2293.38 1062.15 2293.38 1060.4 2293.38 1059 2292.76 1057.96 2291.52 1056.92 2290.28 1056.4 2288.67 1056.4 2286.7 1056.4 2284.94 1056.84 2282.36 1057.74 2278.96L1059.48 2271.95C1060.1 2269.43 1060.52 2267.55 1060.73 2266.29 1060.95 2265.04 1061.06 2264.06 1061.06 2263.35 1061.06 2261.44 1060.75 2260.08 1060.13 2259.28 1059.51 2258.48 1058.49 2258.08 1057.09 2258.08 1055.98 2258.08 1054.75 2258.54 1053.4 2259.46 1052.05 2260.38 1050.63 2261.78 1049.14 2263.66 1047.66 2265.54 1046.48 2267.33 1045.6 2269.05 1044.72 2270.76 1044.02 2272.81 1043.51 2275.19L1039.82 2292.74 1032.81 2292.74 1043.23 2246.41C1043.88 2243.52 1044.2 2241.52 1044.2 2240.42 1044.2 2239.28 1043.85 2238.48 1043.17 2238.02 1042.48 2237.56 1041.24 2237.31 1039.46 2237.25L1039.94 2235.15Z" fill="#3B7D23" fill-rule="evenodd"/><text fill="#000000" fill-opacity="0" font-family="Arial,Arial_MSFontService,sans-serif" font-size="58.6025" x="1032.81" y="2286.06">â„</text><path d="M1092.64 2271.01C1094.23 2271.01 1095.71 2271.18 1097.09 2271.51 1098.47 2271.85 1099.67 2272.36 1100.68 2273.05 1101.69 2273.73 1102.48 2274.59 1103.05 2275.61 1103.61 2276.63 1103.9 2277.82 1103.9 2279.17 1103.9 2280.44 1103.72 2281.56 1103.36 2282.53 1103 2283.51 1102.45 2284.39 1101.71 2285.19 1100.96 2285.98 1100.05 2286.7 1098.97 2287.34 1097.89 2287.99 1096.64 2288.61 1095.23 2289.21L1095.23 2289.56C1096.56 2289.8 1097.8 2290.18 1098.95 2290.71 1100.1 2291.24 1101.11 2291.9 1101.98 2292.71 1102.84 2293.51 1103.52 2294.44 1104.02 2295.49 1104.51 2296.54 1104.76 2297.71 1104.76 2298.98 1104.76 2300.56 1104.46 2302.04 1103.87 2303.4 1103.27 2304.76 1102.38 2305.94 1101.19 2306.93 1099.99 2307.92 1098.53 2308.7 1096.78 2309.25 1095.03 2309.81 1092.99 2310.09 1090.64 2310.09 1088.8 2310.09 1086.92 2309.9 1085.01 2309.53 1083.11 2309.17 1081.3 2308.69 1079.59 2308.09L1079.59 2301.66 1083.43 2301.66C1083.75 2302.65 1084.13 2303.5 1084.57 2304.2 1085 2304.91 1085.51 2305.48 1086.1 2305.93 1086.69 2306.38 1087.36 2306.7 1088.13 2306.9 1088.89 2307.1 1089.76 2307.2 1090.73 2307.2 1093.29 2307.2 1095.23 2306.59 1096.55 2305.36 1097.88 2304.14 1098.54 2302.29 1098.54 2299.81 1098.54 2297.17 1097.67 2295.17 1095.93 2293.81 1094.19 2292.45 1091.62 2291.77 1088.2 2291.77L1085.58 2291.77 1085.58 2288.91C1087.66 2288.81 1089.47 2288.52 1090.98 2288.03 1092.5 2287.54 1093.77 2286.91 1094.78 2286.14 1095.8 2285.36 1096.55 2284.46 1097.05 2283.43 1097.54 2282.4 1097.79 2281.29 1097.79 2280.12 1097.79 2278.22 1097.22 2276.71 1096.09 2275.61 1094.96 2274.51 1093.32 2273.96 1091.18 2273.96 1089.37 2273.96 1087.86 2274.45 1086.64 2275.45 1085.42 2276.44 1084.48 2277.92 1083.82 2279.88L1080.04 2279.88 1080.04 2274.02C1082.38 2273.02 1084.59 2272.27 1086.67 2271.77 1088.74 2271.26 1090.73 2271.01 1092.64 2271.01Z" fill="#3B7D23" fill-rule="evenodd"/><text fill="#000000" fill-opacity="0" font-family="Arial,Arial_MSFontService,sans-serif" font-size="39.0781" x="1079.59" y="2305.2">3</text><path d="M1196.99 2230.62C1204.88 2232.7 1210.94 2237.19 1215.17 2244.1 1219.4 2251 1221.51 2259.33 1221.51 2269.08 1221.51 2278.86 1219.4 2287.19 1215.19 2294.07 1210.97 2300.94 1204.91 2305.42 1196.99 2307.5L1196.02 2304.38C1202.26 2302.3 1206.9 2298.19 1209.94 2292.06 1212.98 2285.93 1214.5 2278.13 1214.5 2268.68 1214.5 2259.54 1212.99 2251.96 1209.96 2245.92 1206.93 2239.88 1202.25 2235.82 1195.9 2233.74ZM1145.09 2230.62 1146.19 2233.74C1139.86 2235.82 1135.18 2239.88 1132.14 2245.92 1129.1 2251.96 1127.58 2259.54 1127.58 2268.68 1127.58 2278.13 1129.1 2285.93 1132.14 2292.06 1135.18 2298.19 1139.82 2302.3 1146.07 2304.38L1145.09 2307.5C1137.18 2305.42 1131.11 2300.94 1126.9 2294.07 1122.68 2287.19 1120.57 2278.86 1120.57 2269.08 1120.57 2259.33 1122.69 2251 1126.92 2244.1 1131.14 2237.19 1137.2 2232.7 1145.09 2230.62Z" fill="#3B7D23" fill-rule="evenodd"/><path d="M1177.34 2258.08C1175.97 2258.08 1174.61 2258.55 1173.27 2259.48 1171.93 2260.42 1170.47 2261.91 1168.87 2263.96 1167.28 2266.01 1166.04 2268.04 1165.15 2270.04 1164.25 2272.04 1163.55 2274.34 1163.04 2276.93L1162.71 2278.63C1162.44 2280.06 1162.27 2281.16 1162.21 2281.92 1162.14 2282.67 1162.11 2283.41 1162.11 2284.14 1162.11 2286.25 1162.56 2287.78 1163.46 2288.74 1164.37 2289.7 1165.93 2290.18 1168.14 2290.18 1169.52 2290.18 1170.79 2289.91 1171.95 2289.37 1173.12 2288.83 1174.22 2288.05 1175.26 2287.02 1176.3 2285.99 1177.24 2284.75 1178.07 2283.29 1178.91 2281.83 1179.66 2280.14 1180.32 2278.21 1180.98 2276.27 1181.48 2274.29 1181.82 2272.25 1182.16 2270.21 1182.33 2268.3 1182.33 2266.51 1182.33 2263.68 1181.93 2261.56 1181.13 2260.17 1180.34 2258.78 1179.07 2258.08 1177.34 2258.08ZM1160.28 2253.3C1161.96 2253.3 1163.29 2253.86 1164.27 2254.96 1165.26 2256.07 1165.75 2257.54 1165.75 2259.38 1165.75 2260.89 1165.44 2262.49 1164.82 2264.16L1165.31 2264.33C1170.31 2257 1175.28 2253.34 1180.22 2253.34 1183.17 2253.34 1185.46 2254.46 1187.09 2256.71 1188.73 2258.95 1189.54 2262.11 1189.54 2266.19 1189.54 2270.65 1188.64 2275.03 1186.85 2279.34 1185.05 2283.65 1182.56 2287.07 1179.37 2289.59 1176.18 2292.12 1172.62 2293.38 1168.67 2293.38 1165.08 2293.38 1162.09 2292.6 1159.71 2291.03L1157.85 2299.91C1157.45 2301.83 1157.24 2303.41 1157.24 2304.65 1157.24 2305.84 1157.55 2306.68 1158.15 2307.18 1158.76 2307.68 1159.94 2308.01 1161.7 2308.18L1161.38 2310.16 1148.85 2310.16 1158.62 2267.16C1159.19 2264.68 1159.47 2262.64 1159.47 2261.04 1159.47 2259.96 1159.3 2259.18 1158.94 2258.69 1158.59 2258.21 1158.04 2257.96 1157.28 2257.96 1156.45 2257.96 1155.56 2258.31 1154.63 2259 1153.7 2259.69 1152.42 2260.94 1150.8 2262.75L1148.49 2260.48C1150.92 2257.94 1152.98 2256.11 1154.67 2254.98 1156.36 2253.86 1158.23 2253.3 1160.28 2253.3Z" fill="#3B7D23" fill-rule="evenodd"/><text fill="#000000" fill-opacity="0" font-family="Arial,Arial_MSFontService,sans-serif" font-size="56.8599" x="1148.49" y="2303.06">ğ‘</text><path d="M1257.55 2274.74 1307.48 2274.74 1307.48 2280.13 1257.55 2280.13ZM1257.55 2257.92 1307.48 2257.92 1307.48 2263.31 1257.55 2263.31Z" fill="#3B7D23" fill-rule="evenodd"/><text fill="#000000" fill-opacity="0" font-family="Arial,Arial_MSFontService,sans-serif" font-size="22.209" x="1257.55" y="2277.36">=</text><path d="M1359.28 2240.21C1357.42 2240.21 1355.86 2240.77 1354.6 2241.87 1353.35 2242.98 1352.33 2244.58 1351.56 2246.66 1350.79 2248.74 1350.24 2251.27 1349.92 2254.26 1349.6 2257.24 1349.43 2260.61 1349.43 2264.37 1349.43 2273.17 1350.25 2279.64 1351.89 2283.76 1353.52 2287.88 1356.05 2289.94 1359.49 2289.94 1362.75 2289.94 1365.18 2288 1366.76 2284.12 1368.34 2280.25 1369.13 2274.24 1369.13 2266.11 1369.13 2259.9 1368.73 2254.86 1367.91 2251.01 1367.1 2247.16 1365.98 2244.4 1364.53 2242.73 1363.09 2241.05 1361.34 2240.21 1359.28 2240.21ZM1359.49 2236.77C1365.4 2236.77 1369.81 2239.05 1372.7 2243.62 1375.59 2248.18 1377.03 2255.09 1377.03 2264.33 1377.03 2273.89 1375.49 2281.12 1372.39 2286.03 1369.3 2290.93 1364.78 2293.38 1358.84 2293.38 1353 2293.38 1348.66 2291.09 1345.81 2286.49 1342.96 2281.9 1341.53 2274.93 1341.53 2265.58 1341.53 2260.61 1341.97 2256.32 1342.85 2252.69 1343.73 2249.07 1344.96 2246.08 1346.54 2243.72 1348.12 2241.35 1350.02 2239.6 1352.23 2238.47 1354.45 2237.33 1356.86 2236.77 1359.49 2236.77Z" fill="#3B7D23" fill-rule="evenodd"/><text fill="#000000" fill-opacity="0" font-family="Arial,Arial_MSFontService,sans-serif" font-size="56.6167" x="1341.53" y="2286.31">0</text><path d="M1809.28 1326.17 1811.63 1326.17 1804.66 1354.25 1805.15 1354.42C1807.71 1351.01 1810.14 1348.55 1812.42 1347.02 1814.71 1345.49 1817.01 1344.73 1819.33 1344.73 1821.84 1344.73 1823.78 1345.45 1825.13 1346.9 1826.48 1348.34 1827.15 1350.35 1827.15 1352.92 1827.15 1354.62 1826.76 1357.04 1825.98 1360.17L1823.34 1370.79C1822.61 1373.73 1822.25 1375.82 1822.25 1377.03 1822.25 1378.11 1822.43 1378.9 1822.78 1379.38 1823.13 1379.87 1823.68 1380.11 1824.44 1380.11 1825.25 1380.11 1826.11 1379.78 1827.03 1379.12 1827.95 1378.46 1829.25 1377.19 1830.92 1375.33L1833.23 1377.6C1830.64 1380.33 1828.51 1382.2 1826.85 1383.23 1825.19 1384.26 1823.32 1384.77 1821.24 1384.77 1819.48 1384.77 1818.08 1384.15 1817.04 1382.91 1816 1381.66 1815.48 1380.06 1815.48 1378.08 1815.48 1376.33 1815.93 1373.75 1816.82 1370.34L1818.56 1363.33C1819.18 1360.82 1819.6 1358.94 1819.82 1357.68 1820.03 1356.42 1820.14 1355.44 1820.14 1354.74 1820.14 1352.82 1819.83 1351.46 1819.21 1350.67 1818.59 1349.87 1817.58 1349.47 1816.17 1349.47 1815.06 1349.47 1813.83 1349.93 1812.48 1350.85 1811.13 1351.77 1809.71 1353.17 1808.23 1355.04 1806.74 1356.92 1805.56 1358.72 1804.68 1360.44 1803.8 1362.15 1803.11 1364.2 1802.59 1366.57L1798.91 1384.12 1791.9 1384.12 1802.31 1337.8C1802.96 1334.91 1803.28 1332.91 1803.28 1331.8 1803.28 1330.67 1802.94 1329.87 1802.25 1329.41 1801.56 1328.95 1800.32 1328.7 1798.54 1328.64L1799.03 1326.53Z" fill-rule="evenodd"/><text fill="#000000" fill-opacity="0" font-family="Arial,Arial_MSFontService,sans-serif" font-size="58.6025" x="1791.9" y="1377.45">â„</text><path d="M1852.2 1362.6 1854.02 1362.6C1853.98 1363.7 1853.95 1364.67 1853.93 1365.54 1853.91 1366.4 1853.9 1367.24 1853.89 1368.05 1853.88 1368.87 1853.87 1369.67 1853.87 1370.47L1853.87 1393.1C1853.87 1393.72 1853.89 1394.25 1853.93 1394.7 1853.97 1395.14 1854.03 1395.52 1854.12 1395.83 1854.21 1396.14 1854.33 1396.4 1854.48 1396.62 1854.63 1396.84 1854.8 1397.03 1855 1397.18 1855.24 1397.42 1855.56 1397.61 1855.96 1397.74 1856.35 1397.86 1856.86 1397.97 1857.47 1398.06 1858.09 1398.15 1858.83 1398.22 1859.69 1398.27 1860.56 1398.32 1861.6 1398.36 1862.81 1398.38L1862.81 1400.97 1839.19 1400.97 1839.19 1398.38C1840.36 1398.34 1841.35 1398.29 1842.17 1398.24 1842.98 1398.19 1843.67 1398.12 1844.25 1398.03 1844.83 1397.94 1845.29 1397.84 1845.64 1397.74 1845.98 1397.63 1846.29 1397.49 1846.54 1397.33 1846.82 1397.15 1847.06 1396.96 1847.26 1396.75 1847.46 1396.54 1847.62 1396.28 1847.74 1395.96 1847.85 1395.65 1847.95 1395.26 1848.02 1394.8 1848.09 1394.34 1848.12 1393.78 1848.12 1393.1L1848.12 1371.75C1848.12 1370.97 1847.97 1370.43 1847.68 1370.11 1847.38 1369.79 1846.95 1369.63 1846.39 1369.63 1845.78 1369.63 1844.87 1369.95 1843.65 1370.59 1842.44 1371.22 1840.87 1372.16 1838.95 1373.42 1838.69 1372.96 1838.45 1372.5 1838.23 1372.05 1838.02 1371.59 1837.79 1371.12 1837.55 1370.65 1840.01 1369.3 1842.45 1367.95 1844.86 1366.61 1847.27 1365.27 1849.72 1363.93 1852.2 1362.6Z" fill-rule="evenodd"/><text fill="#000000" fill-opacity="0" font-family="Arial,Arial_MSFontService,sans-serif" font-size="38.3633" x="1837.55" y="1396.17">1</text><path d="M1871.04 1394.06 1876.25 1394.06C1876.53 1395.45 1876.67 1396.82 1876.67 1398.17 1876.67 1399.56 1876.43 1400.83 1875.95 1401.98 1875.47 1403.13 1874.72 1404.28 1873.67 1405.42 1872.63 1406.56 1871.2 1407.82 1869.37 1409.19L1867.76 1407.37C1868.77 1406.42 1869.51 1405.56 1869.96 1404.79 1870.42 1404.03 1870.75 1403.16 1870.95 1402.19 1871.15 1401.22 1871.25 1399.99 1871.25 1398.52 1871.25 1397.02 1871.18 1395.53 1871.04 1394.06Z" fill-rule="evenodd"/><text fill="#000000" fill-opacity="0" font-family="Arial,Arial_MSFontService,sans-serif" font-size="15.1309" x="1867.76" y="1407.3">,</text><path d="M1897.43 1362.4C1899.5 1362.4 1901.26 1362.63 1902.72 1363.1 1904.18 1363.56 1905.36 1364.19 1906.28 1364.99 1907.19 1365.78 1907.85 1366.73 1908.26 1367.85 1908.67 1368.96 1908.87 1370.16 1908.87 1371.45 1908.87 1372.22 1908.81 1372.94 1908.71 1373.61 1908.6 1374.27 1908.41 1374.93 1908.14 1375.58 1907.87 1376.22 1907.52 1376.87 1907.08 1377.53 1906.65 1378.18 1906.1 1378.88 1905.44 1379.61 1904.95 1380.25 1904.3 1380.98 1903.51 1381.82 1902.71 1382.65 1901.84 1383.54 1900.9 1384.5 1899.96 1385.45 1898.97 1386.44 1897.94 1387.47 1896.91 1388.51 1895.9 1389.53 1894.93 1390.54 1893.96 1391.55 1893.06 1392.54 1892.25 1393.49 1891.44 1394.44 1890.77 1395.32 1890.25 1396.11L1901.27 1396.11C1902.21 1396.11 1902.95 1396.08 1903.51 1396.01 1904.06 1395.94 1904.53 1395.78 1904.89 1395.55 1905.26 1395.31 1905.57 1394.95 1905.83 1394.46 1906.09 1393.97 1906.39 1393.3 1906.72 1392.45L1909.49 1392.45C1909.4 1393.86 1909.3 1395.28 1909.21 1396.71 1909.12 1398.14 1909.03 1399.56 1908.93 1400.97L1883.7 1400.97 1883.7 1399.42C1884.18 1398.35 1884.73 1397.29 1885.37 1396.25 1886 1395.2 1886.72 1394.15 1887.51 1393.07 1888.31 1392 1889.21 1390.89 1890.22 1389.75 1891.24 1388.61 1892.36 1387.42 1893.59 1386.19 1895.46 1384.33 1896.98 1382.73 1898.15 1381.41 1899.32 1380.09 1900.24 1378.92 1900.92 1377.88 1901.59 1376.85 1902.05 1375.9 1902.3 1375.02 1902.55 1374.15 1902.67 1373.22 1902.67 1372.22 1902.67 1371.21 1902.53 1370.28 1902.24 1369.42 1901.95 1368.57 1901.54 1367.85 1901.01 1367.25 1900.47 1366.65 1899.79 1366.19 1898.97 1365.85 1898.14 1365.51 1897.19 1365.34 1896.12 1365.34 1894.27 1365.34 1892.73 1365.85 1891.47 1366.85 1890.22 1367.85 1889.25 1369.31 1888.56 1371.21L1884.65 1371.21 1884.65 1365.4C1887.2 1364.35 1889.53 1363.59 1891.67 1363.11 1893.8 1362.63 1895.72 1362.4 1897.43 1362.4Z" fill-rule="evenodd"/><text fill="#000000" fill-opacity="0" font-family="Arial,Arial_MSFontService,sans-serif" font-size="38.5718" x="1883.7" y="1396.15">2</text><path d="M1918.59 1394.06 1923.8 1394.06C1924.08 1395.45 1924.22 1396.82 1924.22 1398.17 1924.22 1399.56 1923.98 1400.83 1923.5 1401.98 1923.03 1403.13 1922.27 1404.28 1921.23 1405.42 1920.18 1406.56 1918.75 1407.82 1916.92 1409.19L1915.31 1407.37C1916.33 1406.42 1917.06 1405.56 1917.52 1404.79 1917.97 1404.03 1918.3 1403.16 1918.5 1402.19 1918.7 1401.22 1918.8 1399.99 1918.8 1398.52 1918.8 1397.02 1918.73 1395.53 1918.59 1394.06Z" fill-rule="evenodd"/><text fill="#000000" fill-opacity="0" font-family="Arial,Arial_MSFontService,sans-serif" font-size="15.1309" x="1915.31" y="1407.3">,</text><path d="M1944.92 1362.4C1946.51 1362.4 1948 1362.56 1949.38 1362.9 1950.76 1363.24 1951.95 1363.75 1952.97 1364.44 1953.98 1365.12 1954.77 1365.97 1955.33 1367 1955.9 1368.02 1956.18 1369.21 1956.18 1370.56 1956.18 1371.83 1956 1372.95 1955.65 1373.92 1955.29 1374.9 1954.74 1375.78 1953.99 1376.57 1953.25 1377.37 1952.34 1378.09 1951.25 1378.73 1950.17 1379.38 1948.93 1380 1947.52 1380.59L1947.52 1380.95C1948.85 1381.19 1950.09 1381.57 1951.24 1382.1 1952.39 1382.62 1953.4 1383.29 1954.26 1384.09 1955.13 1384.9 1955.81 1385.83 1956.3 1386.88 1956.8 1387.93 1957.05 1389.09 1957.05 1390.36 1957.05 1391.95 1956.75 1393.43 1956.15 1394.79 1955.56 1396.15 1954.66 1397.32 1953.47 1398.32 1952.28 1399.31 1950.81 1400.08 1949.06 1400.64 1947.32 1401.2 1945.27 1401.47 1942.93 1401.47 1941.08 1401.47 1939.21 1401.29 1937.3 1400.92 1935.39 1400.56 1933.59 1400.07 1931.88 1399.48L1931.88 1393.04 1935.72 1393.04C1936.04 1394.04 1936.42 1394.89 1936.85 1395.59 1937.29 1396.3 1937.8 1396.87 1938.39 1397.32 1938.97 1397.77 1939.65 1398.09 1940.41 1398.29 1941.18 1398.48 1942.04 1398.58 1943.02 1398.58 1945.58 1398.58 1947.52 1397.97 1948.84 1396.75 1950.16 1395.53 1950.82 1393.68 1950.82 1391.2 1950.82 1388.56 1949.95 1386.56 1948.22 1385.2 1946.48 1383.84 1943.9 1383.16 1940.49 1383.16L1937.87 1383.16 1937.87 1380.3C1939.95 1380.2 1941.75 1379.9 1943.27 1379.42 1944.79 1378.93 1946.06 1378.3 1947.07 1377.53 1948.08 1376.75 1948.84 1375.85 1949.33 1374.82 1949.83 1373.78 1950.08 1372.68 1950.08 1371.51 1950.08 1369.6 1949.51 1368.1 1948.38 1367 1947.25 1365.9 1945.61 1365.34 1943.46 1365.34 1941.66 1365.34 1940.14 1365.84 1938.92 1366.83 1937.7 1367.83 1936.76 1369.31 1936.11 1371.27L1932.33 1371.27 1932.33 1365.4C1934.67 1364.41 1936.88 1363.66 1938.95 1363.15 1941.03 1362.65 1943.02 1362.4 1944.92 1362.4Z" fill-rule="evenodd"/><text fill="#000000" fill-opacity="0" font-family="Arial,Arial_MSFontService,sans-serif" font-size="39.0781" x="1931.88" y="1396.59">3</text><path d="M2049.28 1322.01C2057.17 1324.09 2063.23 1328.58 2067.45 1335.48 2071.68 1342.39 2073.8 1350.72 2073.8 1360.47 2073.8 1370.25 2071.69 1378.58 2067.47 1385.45 2063.26 1392.33 2057.19 1396.81 2049.28 1398.89L2048.31 1395.77C2054.55 1393.69 2059.19 1389.58 2062.23 1383.45 2065.27 1377.32 2066.79 1369.52 2066.79 1360.06 2066.79 1350.93 2065.27 1343.35 2062.25 1337.31 2059.22 1331.27 2054.53 1327.21 2048.18 1325.13ZM1997.38 1322.01 1998.47 1325.13C1992.15 1327.21 1987.47 1331.27 1984.43 1337.31 1981.39 1343.35 1979.87 1350.93 1979.87 1360.06 1979.87 1369.52 1981.39 1377.32 1984.43 1383.45 1987.47 1389.58 1992.11 1393.69 1998.35 1395.77L1997.38 1398.89C1989.46 1396.81 1983.4 1392.33 1979.18 1385.45 1974.97 1378.58 1972.86 1370.25 1972.86 1360.47 1972.86 1350.72 1974.97 1342.39 1979.2 1335.48 1983.43 1328.58 1989.49 1324.09 1997.38 1322.01Z" fill-rule="evenodd"/><path d="M2029.63 1349.47C2028.25 1349.47 2026.89 1349.94 2025.56 1350.87 2024.22 1351.8 2022.75 1353.3 2021.16 1355.35 2019.57 1357.4 2018.32 1359.43 2017.43 1361.43 2016.54 1363.43 2015.84 1365.72 2015.32 1368.32L2015 1370.02C2014.73 1371.45 2014.56 1372.55 2014.49 1373.3 2014.43 1374.06 2014.39 1374.8 2014.39 1375.53 2014.39 1377.64 2014.84 1379.17 2015.75 1380.13 2016.65 1381.09 2018.21 1381.57 2020.43 1381.57 2021.81 1381.57 2023.08 1381.3 2024.24 1380.76 2025.4 1380.22 2026.5 1379.44 2027.54 1378.41 2028.58 1377.38 2029.52 1376.14 2030.36 1374.68 2031.2 1373.22 2031.95 1371.53 2032.61 1369.59 2033.27 1367.66 2033.77 1365.68 2034.11 1363.64 2034.45 1361.6 2034.61 1359.69 2034.61 1357.9 2034.61 1355.07 2034.22 1352.95 2033.42 1351.56 2032.62 1350.17 2031.36 1349.47 2029.63 1349.47ZM2012.57 1344.69C2014.24 1344.69 2015.57 1345.24 2016.56 1346.35 2017.55 1347.46 2018.04 1348.93 2018.04 1350.77 2018.04 1352.28 2017.73 1353.88 2017.11 1355.55L2017.59 1355.71C2022.59 1348.39 2027.56 1344.73 2032.51 1344.73 2035.45 1344.73 2037.74 1345.85 2039.38 1348.09 2041.01 1350.34 2041.83 1353.5 2041.83 1357.58 2041.83 1362.04 2040.93 1366.42 2039.13 1370.73 2037.34 1375.04 2034.84 1378.46 2031.66 1380.98 2028.47 1383.51 2024.9 1384.77 2020.96 1384.77 2017.36 1384.77 2014.38 1383.99 2012 1382.42L2010.14 1391.3C2009.73 1393.21 2009.53 1394.8 2009.53 1396.04 2009.53 1397.23 2009.83 1398.07 2010.44 1398.57 2011.05 1399.07 2012.23 1399.4 2013.99 1399.56L2013.66 1401.55 2001.14 1401.55 2010.91 1358.55C2011.47 1356.06 2011.76 1354.03 2011.76 1352.43 2011.76 1351.35 2011.58 1350.57 2011.23 1350.08 2010.88 1349.59 2010.33 1349.35 2009.57 1349.35 2008.73 1349.35 2007.85 1349.7 2006.91 1350.38 2005.98 1351.07 2004.71 1352.32 2003.08 1354.13L2000.77 1351.86C2003.21 1349.32 2005.27 1347.49 2006.96 1346.37 2008.64 1345.25 2010.51 1344.69 2012.57 1344.69Z" fill-rule="evenodd"/><text fill="#000000" fill-opacity="0" font-family="Arial,Arial_MSFontService,sans-serif" font-size="56.8599" x="2000.77" y="1394.44">ğ‘</text><path d="M2159.93 1335.25 2159.93 1341.33 2115.92 1360.41 2159.93 1379.5 2159.93 1385.58 2109.84 1363.25 2109.84 1357.58Z" fill-rule="evenodd"/><text fill="#000000" fill-opacity="0" font-family="Arial,Arial_MSFontService,sans-serif" font-size="50.335" x="2109.84" y="1379.29">&lt;</text><path d="M2211.57 1331.6C2209.7 1331.6 2208.14 1332.15 2206.89 1333.26 2205.63 1334.37 2204.62 1335.96 2203.85 1338.04 2203.08 1340.12 2202.53 1342.66 2202.21 1345.64 2201.88 1348.63 2201.72 1352 2201.72 1355.75 2201.72 1364.56 2202.54 1371.03 2204.17 1375.15 2205.81 1379.27 2208.34 1381.33 2211.77 1381.33 2215.04 1381.33 2217.47 1379.39 2219.05 1375.51 2220.63 1371.63 2221.42 1365.63 2221.42 1357.5 2221.42 1351.28 2221.01 1346.25 2220.2 1342.4 2219.39 1338.55 2218.26 1335.79 2216.82 1334.11 2215.37 1332.44 2213.62 1331.6 2211.57 1331.6ZM2211.77 1328.16C2217.69 1328.16 2222.09 1330.44 2224.98 1335 2227.87 1339.57 2229.32 1346.47 2229.32 1355.71 2229.32 1365.28 2227.77 1372.51 2224.68 1377.42 2221.59 1382.32 2217.07 1384.77 2211.12 1384.77 2205.29 1384.77 2200.94 1382.48 2198.09 1377.88 2195.24 1373.29 2193.82 1366.32 2193.82 1356.97 2193.82 1352 2194.26 1347.7 2195.13 1344.08 2196.01 1340.46 2197.24 1337.47 2198.82 1335.11 2200.4 1332.74 2202.3 1330.99 2204.52 1329.86 2206.73 1328.72 2209.15 1328.16 2211.77 1328.16Z" fill-rule="evenodd"/><text fill="#000000" fill-opacity="0" font-family="Arial,Arial_MSFontService,sans-serif" font-size="56.6167" x="2193.82" y="1377.69">0</text><path d="M2675.22 2234.78 2677.57 2234.78 2670.6 2262.87 2671.08 2263.03C2673.65 2259.62 2676.08 2257.16 2678.36 2255.63 2680.64 2254.11 2682.95 2253.34 2685.27 2253.34 2687.78 2253.34 2689.71 2254.07 2691.06 2255.51 2692.42 2256.96 2693.09 2258.96 2693.09 2261.53 2693.09 2263.23 2692.7 2265.65 2691.92 2268.78L2689.28 2279.4C2688.55 2282.35 2688.19 2284.43 2688.19 2285.64 2688.19 2286.72 2688.36 2287.51 2688.71 2287.99 2689.07 2288.48 2689.62 2288.72 2690.38 2288.72 2691.19 2288.72 2692.05 2288.39 2692.97 2287.73 2693.89 2287.07 2695.19 2285.81 2696.86 2283.94L2699.17 2286.21C2696.58 2288.94 2694.45 2290.82 2692.79 2291.84 2691.13 2292.87 2689.25 2293.38 2687.17 2293.38 2685.42 2293.38 2684.02 2292.76 2682.98 2291.52 2681.94 2290.28 2681.42 2288.67 2681.42 2286.7 2681.42 2284.94 2681.87 2282.36 2682.76 2278.96L2684.5 2271.95C2685.12 2269.43 2685.54 2267.55 2685.76 2266.29 2685.97 2265.04 2686.08 2264.06 2686.08 2263.35 2686.08 2261.44 2685.77 2260.08 2685.15 2259.28 2684.53 2258.48 2683.51 2258.08 2682.11 2258.08 2681 2258.08 2679.77 2258.54 2678.42 2259.46 2677.07 2260.38 2675.65 2261.78 2674.17 2263.66 2672.68 2265.54 2671.5 2267.33 2670.62 2269.05 2669.74 2270.76 2669.05 2272.81 2668.53 2275.19L2664.84 2292.74 2657.83 2292.74 2668.25 2246.41C2668.9 2243.52 2669.22 2241.52 2669.22 2240.42 2669.22 2239.28 2668.88 2238.48 2668.19 2238.02 2667.5 2237.56 2666.26 2237.31 2664.48 2237.25L2664.97 2235.15Z" fill="#FFC000" fill-rule="evenodd"/><text fill="#000000" fill-opacity="0" font-family="Arial,Arial_MSFontService,sans-serif" font-size="58.6025" x="2657.83" y="2286.06">â„</text><path d="M2717.72 2271.01C2719.78 2271.01 2721.55 2271.24 2723.01 2271.71 2724.47 2272.17 2725.65 2272.8 2726.57 2273.6 2727.48 2274.39 2728.14 2275.35 2728.55 2276.46 2728.95 2277.57 2729.16 2278.77 2729.16 2280.06 2729.16 2280.84 2729.1 2281.56 2728.99 2282.22 2728.88 2282.89 2728.7 2283.54 2728.43 2284.19 2728.16 2284.83 2727.81 2285.48 2727.37 2286.14 2726.93 2286.79 2726.39 2287.49 2725.73 2288.22 2725.24 2288.86 2724.59 2289.59 2723.8 2290.43 2723 2291.26 2722.13 2292.16 2721.19 2293.11 2720.25 2294.06 2719.26 2295.05 2718.23 2296.09 2717.19 2297.12 2716.19 2298.14 2715.22 2299.15 2714.24 2300.17 2713.35 2301.15 2712.54 2302.1 2711.72 2303.06 2711.06 2303.93 2710.54 2304.72L2721.56 2304.72C2722.49 2304.72 2723.24 2304.69 2723.8 2304.62 2724.35 2304.55 2724.81 2304.4 2725.18 2304.16 2725.55 2303.92 2725.86 2303.56 2726.12 2303.07 2726.38 2302.58 2726.67 2301.91 2727.01 2301.06L2729.78 2301.06C2729.68 2302.47 2729.59 2303.89 2729.5 2305.32 2729.41 2306.75 2729.32 2308.17 2729.22 2309.58L2703.99 2309.58 2703.99 2308.03C2704.46 2306.96 2705.02 2305.9 2705.66 2304.86 2706.29 2303.82 2707.01 2302.76 2707.8 2301.69 2708.59 2300.61 2709.5 2299.51 2710.51 2298.37 2711.52 2297.22 2712.65 2296.04 2713.88 2294.81 2715.74 2292.94 2717.26 2291.35 2718.43 2290.03 2719.61 2288.71 2720.53 2287.53 2721.2 2286.5 2721.88 2285.46 2722.34 2284.51 2722.59 2283.64 2722.84 2282.76 2722.96 2281.83 2722.96 2280.84 2722.96 2279.82 2722.82 2278.89 2722.53 2278.04 2722.24 2277.18 2721.83 2276.46 2721.29 2275.86 2720.76 2275.27 2720.08 2274.8 2719.25 2274.46 2718.43 2274.13 2717.48 2273.96 2716.41 2273.96 2714.56 2273.96 2713.01 2274.46 2711.76 2275.46 2710.51 2276.46 2709.54 2277.92 2708.84 2279.82L2704.94 2279.82 2704.94 2274.02C2707.48 2272.96 2709.82 2272.2 2711.96 2271.72 2714.09 2271.25 2716.01 2271.01 2717.72 2271.01Z" fill="#FFC000" fill-rule="evenodd"/><text fill="#000000" fill-opacity="0" font-family="Arial,Arial_MSFontService,sans-serif" font-size="38.5718" x="2703.99" y="2304.76">2</text><path d="M2822.01 2230.62C2829.9 2232.7 2835.96 2237.19 2840.19 2244.1 2844.42 2251 2846.53 2259.33 2846.53 2269.08 2846.53 2278.86 2844.42 2287.19 2840.21 2294.07 2836 2300.94 2829.93 2305.42 2822.01 2307.5L2821.04 2304.38C2827.28 2302.3 2831.92 2298.19 2834.96 2292.06 2838 2285.93 2839.52 2278.13 2839.52 2268.68 2839.52 2259.54 2838.01 2251.96 2834.98 2245.92 2831.96 2239.88 2827.27 2235.82 2820.92 2233.74ZM2770.11 2230.62 2771.21 2233.74C2764.89 2235.82 2760.2 2239.88 2757.17 2245.92 2754.13 2251.96 2752.61 2259.54 2752.61 2268.68 2752.61 2278.13 2754.13 2285.93 2757.17 2292.06 2760.2 2298.19 2764.85 2302.3 2771.09 2304.38L2770.11 2307.5C2762.2 2305.42 2756.13 2300.94 2751.92 2294.07 2747.7 2287.19 2745.59 2278.86 2745.59 2269.08 2745.59 2259.33 2747.71 2251 2751.94 2244.1 2756.17 2237.19 2762.22 2232.7 2770.11 2230.62Z" fill="#FFC000" fill-rule="evenodd"/><path d="M2802.37 2258.08C2800.99 2258.08 2799.63 2258.55 2798.29 2259.48 2796.96 2260.42 2795.49 2261.91 2793.9 2263.96 2792.3 2266.01 2791.06 2268.04 2790.17 2270.04 2789.28 2272.04 2788.57 2274.34 2788.06 2276.93L2787.74 2278.63C2787.46 2280.06 2787.3 2281.16 2787.23 2281.92 2787.16 2282.67 2787.13 2283.41 2787.13 2284.14 2787.13 2286.25 2787.58 2287.78 2788.48 2288.74 2789.39 2289.7 2790.95 2290.18 2793.17 2290.18 2794.54 2290.18 2795.81 2289.91 2796.98 2289.37 2798.14 2288.83 2799.24 2288.05 2800.28 2287.02 2801.32 2285.99 2802.26 2284.75 2803.09 2283.29 2803.93 2281.83 2804.68 2280.14 2805.34 2278.21 2806.01 2276.27 2806.51 2274.29 2806.84 2272.25 2807.18 2270.21 2807.35 2268.3 2807.35 2266.51 2807.35 2263.68 2806.95 2261.56 2806.15 2260.17 2805.36 2258.78 2804.09 2258.08 2802.37 2258.08ZM2785.3 2253.3C2786.98 2253.3 2788.31 2253.86 2789.3 2254.96 2790.28 2256.07 2790.77 2257.54 2790.77 2259.38 2790.77 2260.89 2790.46 2262.49 2789.84 2264.16L2790.33 2264.33C2795.33 2257 2800.3 2253.34 2805.24 2253.34 2808.19 2253.34 2810.48 2254.46 2812.11 2256.71 2813.75 2258.95 2814.56 2262.11 2814.56 2266.19 2814.56 2270.65 2813.67 2275.03 2811.87 2279.34 2810.07 2283.65 2807.58 2287.07 2804.39 2289.59 2801.2 2292.12 2797.64 2293.38 2793.69 2293.38 2790.1 2293.38 2787.11 2292.6 2784.74 2291.03L2782.87 2299.91C2782.47 2301.83 2782.26 2303.41 2782.26 2304.65 2782.26 2305.84 2782.57 2306.68 2783.18 2307.18 2783.78 2307.68 2784.97 2308.01 2786.72 2308.18L2786.4 2310.16 2773.87 2310.16 2783.64 2267.16C2784.21 2264.68 2784.49 2262.64 2784.49 2261.04 2784.49 2259.96 2784.32 2259.18 2783.97 2258.69 2783.61 2258.21 2783.06 2257.96 2782.3 2257.96 2781.47 2257.96 2780.58 2258.31 2779.65 2259 2778.72 2259.69 2777.44 2260.94 2775.82 2262.75L2773.51 2260.48C2775.94 2257.94 2778 2256.11 2779.69 2254.98 2781.38 2253.86 2783.25 2253.3 2785.3 2253.3Z" fill="#FFC000" fill-rule="evenodd"/><text fill="#000000" fill-opacity="0" font-family="Arial,Arial_MSFontService,sans-serif" font-size="56.8599" x="2773.51" y="2303.06">ğ‘</text><path d="M2882.57 2274.74 2932.5 2274.74 2932.5 2280.13 2882.57 2280.13ZM2882.57 2257.92 2932.5 2257.92 2932.5 2263.31 2882.57 2263.31Z" fill="#FFC000" fill-rule="evenodd"/><text fill="#000000" fill-opacity="0" font-family="Arial,Arial_MSFontService,sans-serif" font-size="22.209" x="2882.57" y="2277.36">=</text><path d="M2984.3 2240.21C2982.44 2240.21 2980.88 2240.77 2979.62 2241.87 2978.37 2242.98 2977.35 2244.58 2976.58 2246.66 2975.81 2248.74 2975.27 2251.27 2974.94 2254.26 2974.62 2257.24 2974.46 2260.61 2974.46 2264.37 2974.46 2273.17 2975.27 2279.64 2976.91 2283.76 2978.54 2287.88 2981.08 2289.94 2984.51 2289.94 2987.78 2289.94 2990.2 2288 2991.78 2284.12 2993.36 2280.25 2994.15 2274.24 2994.15 2266.11 2994.15 2259.9 2993.75 2254.86 2992.94 2251.01 2992.13 2247.16 2991 2244.4 2989.55 2242.73 2988.11 2241.05 2986.36 2240.21 2984.3 2240.21ZM2984.51 2236.77C2990.42 2236.77 2994.83 2239.05 2997.72 2243.62 3000.61 2248.18 3002.05 2255.09 3002.05 2264.33 3002.05 2273.89 3000.51 2281.12 2997.41 2286.03 2994.32 2290.93 2989.8 2293.38 2983.86 2293.38 2978.02 2293.38 2973.68 2291.09 2970.83 2286.49 2967.98 2281.9 2966.55 2274.93 2966.55 2265.58 2966.55 2260.61 2966.99 2256.32 2967.87 2252.69 2968.75 2249.07 2969.98 2246.08 2971.56 2243.72 2973.14 2241.35 2975.04 2239.6 2977.25 2238.47 2979.47 2237.33 2981.89 2236.77 2984.51 2236.77Z" fill="#FFC000" fill-rule="evenodd"/><text fill="#000000" fill-opacity="0" font-family="Arial,Arial_MSFontService,sans-serif" font-size="56.6167" x="2966.55" y="2286.31">0</text></g></svg>